<?xml version="1.0" standalone="no"?>
<!DOCTYPE svg PUBLIC "-//W3C//DTD SVG 20010904//EN"
 "http://www.w3.org/TR/2001/REC-SVG-20010904/DTD/svg10.dtd">
<svg version="1.0" xmlns="http://www.w3.org/2000/svg"
 width="267.000000pt" height="267.000000pt" viewBox="0 0 267.000000 267.000000"
 preserveAspectRatio="xMidYMid meet">

<g transform="translate(0.000000,267.000000) scale(0.100000,-0.100000)"
fill="#000000" stroke="none">
<path d="M1 2068 c1 -543 2 -594 14 -518 21 132 61 254 125 385 178 364 520
630 920 715 l85 19 -572 0 -573 1 1 -602z"/>
<path d="M1635 2645 c525 -123 923 -539 1019 -1065 12 -67 14 -16 15 508 l1
582 -567 -1 -568 0 100 -24z"/>
<path d="M1148 2184 c-98 -23 -161 -63 -238 -148 -28 -31 -38 -47 -25 -41 63
25 129 36 220 34 124 -2 101 -2 283 8 88 4 161 4 170 -1 29 -15 83 -70 100
-101 9 -16 21 -70 28 -120 7 -49 19 -115 28 -145 9 -30 16 -86 17 -125 0 -38
4 -79 9 -90 5 -12 9 -14 9 -6 1 8 11 25 23 38 12 13 17 23 12 23 -5 0 -9 56
-9 128 -1 215 -45 311 -200 427 -89 67 -183 113 -261 125 -74 12 -95 12 -166
-6z"/>
<path d="M798 1907 c-74 -117 -93 -302 -46 -459 6 -21 15 -38 19 -38 4 0 6 55
6 123 -3 228 3 291 34 357 33 70 26 79 -13 17z"/>
<path d="M1520 1860 c0 -5 -7 -10 -16 -10 -12 0 -14 -3 -6 -13 6 -6 12 -28 14
-47 3 -31 7 -35 33 -38 41 -4 61 36 43 85 -10 27 -17 33 -40 33 -15 0 -28 -4
-28 -10z"/>
<path d="M1434 1691 c-69 -7 -91 -21 -96 -59 -2 -18 -12 -31 -30 -40 -34 -16
-44 -45 -24 -74 9 -12 16 -28 16 -35 0 -23 46 -82 75 -96 36 -18 162 -40 176
-32 5 4 9 12 8 18 -3 29 4 36 50 47 l48 11 7 61 c12 115 10 121 -40 166 -49
46 -54 46 -190 33z m110 -87 c9 -3 16 -12 16 -20 0 -8 9 -14 20 -14 29 0 24
-17 -7 -23 -32 -6 -123 0 -131 8 -4 3 0 10 8 15 8 6 11 10 5 10 -12 1 45 28
62 29 6 1 18 -2 27 -5z"/>
<path d="M941 1636 c-53 -9 -68 -17 -92 -45 -34 -42 -46 -88 -28 -107 17 -16
28 -10 58 34 30 42 53 54 120 58 76 5 101 12 101 28 0 38 -61 50 -159 32z"/>
<path d="M1055 1560 c-4 -6 -11 -7 -17 -4 -6 4 -8 -1 -4 -12 4 -15 -3 -23 -32
-36 -20 -9 -52 -19 -69 -23 -32 -6 -63 -37 -63 -62 0 -19 51 -37 60 -22 10 15
46 6 42 -11 -4 -18 17 -30 56 -30 36 0 112 45 112 66 0 8 5 14 11 14 8 0 7 5
-2 16 -10 13 -10 17 0 23 23 14 7 45 -34 68 -47 25 -52 26 -60 13z"/>
<path d="M1812 1487 c-8 -9 -7 -27 5 -67 18 -61 29 -53 34 25 3 39 1 50 -12
53 -9 1 -21 -3 -27 -11z"/>
<path d="M1743 1404 c-3 -9 0 -32 6 -51 10 -26 10 -38 2 -46 -13 -13 -15 -47
-2 -47 17 0 61 61 61 83 -1 20 -41 77 -55 77 -3 0 -8 -7 -12 -16z"/>
<path d="M694 1368 c9 -47 23 -56 37 -25 13 29 -1 57 -28 57 -12 0 -14 -7 -9
-32z"/>
<path d="M1397 1294 c-3 -4 -2 -15 4 -26 6 -10 9 -31 7 -46 -2 -22 -8 -27 -37
-29 -18 -2 -46 -14 -62 -27 -18 -15 -47 -27 -77 -30 -26 -4 -65 -11 -87 -17
-22 -5 -57 -14 -78 -18 -38 -8 -38 -8 -32 20 12 53 -36 24 -62 -38 -16 -40 -8
-78 20 -98 29 -20 37 -19 37 5 0 26 8 25 51 -4 21 -14 40 -21 45 -16 5 4 54 5
108 2 93 -7 99 -8 83 -24 -9 -9 -17 -19 -17 -22 0 -6 53 2 93 15 24 7 30 6 34
-10 6 -22 43 -25 43 -4 0 7 5 13 10 13 6 0 10 -20 10 -45 0 -25 -4 -45 -10
-45 -5 0 -10 6 -10 13 0 9 -3 8 -9 -2 -5 -7 -5 -26 -1 -41 7 -23 3 -33 -19
-54 -25 -24 -32 -26 -110 -23 -80 3 -85 2 -110 -23 -24 -24 -29 -25 -61 -16
-19 6 -51 27 -70 46 -55 54 -78 70 -101 70 -13 0 -24 10 -31 28 -6 15 -25 36
-42 47 -19 12 -43 45 -63 85 -39 77 -43 61 -9 -36 47 -133 75 -189 120 -241
60 -68 168 -142 220 -152 48 -9 126 -41 126 -52 0 -15 67 -29 127 -26 42 1 63
6 63 14 0 7 11 15 25 19 14 3 42 23 62 44 33 32 38 44 38 83 0 44 -1 45 -19
29 -18 -16 -18 -16 -7 6 7 13 24 27 38 33 19 7 24 15 20 29 -3 11 1 27 9 34 8
8 14 28 14 44 0 17 9 59 20 94 11 34 22 95 25 133 l5 70 -15 -53 c-17 -60 -52
-111 -76 -111 -8 -1 -26 -12 -39 -26 -28 -30 -38 -31 -56 -7 -17 21 -17 53 -3
102 10 33 8 46 -16 105 -14 37 -28 79 -29 93 -5 45 -77 107 -99 86z m-92 -245
c-16 -6 -41 -15 -55 -22 -14 -6 -36 -12 -50 -14 -32 -4 -140 17 -140 28 0 12
43 16 165 17 85 0 103 -2 80 -9z m108 4 c-7 -2 -19 -2 -25 0 -7 3 -2 5 12 5
14 0 19 -2 13 -5z m237 -333 c0 -5 -5 -10 -11 -10 -5 0 -7 5 -4 10 3 6 8 10
11 10 2 0 4 -4 4 -10z"/>
<path d="M1 608 l-1 -608 1335 0 1335 0 -1 593 c-1 548 -2 586 -15 512 -50
-274 -202 -561 -375 -706 -48 -40 -50 -41 -69 -24 -11 10 -17 22 -14 27 8 12
-37 47 -53 41 -7 -3 -13 2 -13 10 0 9 -7 23 -16 31 -21 21 -54 21 -54 0 0 -13
-6 -11 -25 10 -13 14 -29 26 -36 26 -6 0 -29 16 -50 35 -22 19 -48 35 -60 35
-20 0 -20 -1 5 -31 28 -33 29 -35 16 -64 l-9 -20 -1 20 -1 20 -9 -20 c-8 -17
-9 -18 -11 -2 -1 9 -3 22 -4 27 -1 6 -3 16 -4 23 -2 25 -58 77 -89 83 -21 4
-32 3 -32 -5 0 -6 4 -11 10 -11 5 0 16 -10 24 -23 20 -29 6 -93 -32 -151 -43
-66 -51 -80 -61 -101 -16 -35 -74 -81 -151 -120 -69 -35 -85 -39 -200 -47
-182 -14 -205 -12 -285 26 -101 49 -156 104 -199 202 -43 98 -44 119 -9 156
l27 28 -27 0 c-42 0 -67 -32 -67 -86 0 -27 -4 -43 -10 -39 -6 4 -7 -6 -3 -27
12 -67 44 -135 80 -174 21 -21 38 -47 39 -56 2 -25 -56 25 -77 66 -9 17 -25
47 -36 67 -21 37 -48 173 -38 190 12 18 -22 9 -41 -12 -26 -28 -91 -59 -127
-59 -22 0 -40 -12 -75 -50 l-47 -50 -48 41 c-54 46 -156 174 -210 264 -77 127
-147 319 -172 475 -12 77 -13 25 -14 -522z m796 -210 c-3 -8 -6 -5 -6 6 -1 11
2 17 5 13 3 -3 4 -12 1 -19z m76 -106 c15 -16 24 -31 21 -35 -9 -8 -34 11 -34
26 0 5 -8 16 -17 23 -10 7 -13 14 -7 14 5 0 22 -13 37 -28z m1157 -2 c0 -5 -5
-10 -11 -10 -5 0 -7 5 -4 10 3 6 8 10 11 10 2 0 4 -4 4 -10z m-155 -10 c3 -5
1 -10 -4 -10 -6 0 -11 5 -11 10 0 6 2 10 4 10 3 0 8 -4 11 -10z m-1128 -22
c-3 -8 -6 -5 -6 6 -1 11 2 17 5 13 3 -3 4 -12 1 -19z m1283 -18 c0 -5 -5 -10
-11 -10 -5 0 -7 5 -4 10 3 6 8 10 11 10 2 0 4 -4 4 -10z m-1084 -78 c10 -10
34 -24 52 -31 17 -7 32 -17 32 -22 0 -5 3 -8 8 -7 4 1 17 -3 30 -10 29 -17
160 -42 179 -35 7 3 28 2 47 -1 28 -5 33 -10 29 -26 -5 -20 -39 -28 -45 -10
-1 5 -43 10 -93 11 -127 2 -153 11 -224 75 -33 31 -61 60 -61 65 0 15 25 10
46 -9z m-181 -12 c3 -6 -1 -7 -9 -4 -18 7 -21 14 -7 14 6 0 13 -4 16 -10z
m109 -30 c16 -33 11 -40 -10 -12 -13 16 -19 42 -10 42 3 0 11 -13 20 -30z
m700 -14 c-21 -15 -30 -14 -19 3 3 6 14 11 23 11 13 0 13 -2 -4 -14z m-4 -46
c-34 -11 -60 -11 -35 0 11 5 29 8 40 8 16 0 15 -2 -5 -8z"/>
<path d="M1135 1160 c-3 -5 3 -10 15 -10 12 0 18 5 15 10 -3 6 -10 10 -15 10
-5 0 -12 -4 -15 -10z"/>
<path d="M811 1064 c0 -11 3 -14 6 -6 3 7 2 16 -1 19 -3 4 -6 -2 -5 -13z"/>
<path d="M1304 890 c-119 -6 -134 -13 -103 -46 28 -30 60 -30 121 0 42 20 50
21 78 9 32 -13 50 -10 50 8 0 6 -4 8 -9 5 -5 -4 -7 3 -4 13 4 15 0 19 -15 18
-11 -1 -64 -4 -118 -7z"/>
</g>
</svg>
